<?xml version="1.0" standalone="no"?><!DOCTYPE svg PUBLIC "-//W3C//DTD SVG 1.1//EN" "http://www.w3.org/Graphics/SVG/1.1/DTD/svg11.dtd"><svg t="1575900001774" class="icon" viewBox="0 0 1024 1024" version="1.1" xmlns="http://www.w3.org/2000/svg" p-id="4588" width="48" height="48" xmlns:xlink="http://www.w3.org/1999/xlink"><defs><style type="text/css"></style></defs><path d="M831.384098 830.673923c-0.442068-1.603521-0.856507-3.208065-1.248434-4.816702 79.758532-80.672344 129.001049-191.520965 129.001049-313.876664 0-246.639307-200.176089-446.641433-447.13569-446.641433-246.961648 0-447.137737 200.002127-447.137737 446.64962 0 246.705821 200.176089 446.671109 447.137737 446.671109 67.917856 0 132.296095-15.129582 189.952236-42.191938 29.953196 26.482141 91.565439 41.733497 193.307657 41.733497C1023.011486 958.201411 866.37503 958.201411 831.384098 830.673923L831.384098 830.673923zM687.655625 352.458377c26.454512 0 47.914266 21.417799 47.914266 47.820122 0 26.405393-21.459754 47.822169-47.914266 47.822169-26.445302 0-47.90915-21.424962-47.90915-47.822169C639.746476 373.876176 661.210323 352.458377 687.655625 352.458377L687.655625 352.458377zM288.432155 400.278499c0-26.402323 21.459754-47.827285 47.904033-47.827285 26.445302 0 47.90915 21.424962 47.90915 47.827285 0 26.397207-21.464871 47.822169-47.90915 47.822169C309.886793 448.101691 288.432155 426.676729 288.432155 400.278499L288.432155 400.278499zM512.001023 766.910691c-105.864096 0-191.627389-85.652775-191.627389-191.292768 0-17.613146 14.281261-31.873941 31.936363-31.873941 17.645892 0 31.936363 14.260795 31.936363 31.873941 0 70.431096 57.202816 127.531582 127.754662 127.531582s127.745453-57.100486 127.745453-127.531582c0-17.613146 14.290471-31.873941 31.946596-31.873941 17.653055 0 31.936363 14.260795 31.936363 31.873941C703.628412 681.258938 617.830327 766.910691 512.001023 766.910691L512.001023 766.910691zM512.001023 766.910691" p-id="4589" fill="#8a8a8a"></path></svg>